<svg width="384" height="93" viewBox="0 0 384 93" fill="none" xmlns="http://www.w3.org/2000/svg">
<rect x="3" y="3" width="173" height="82" stroke="#3CD87A" stroke-width="6"/>
<rect x="138" y="19" width="79" height="52" fill="white"/>
<path d="M76.48 45.36C78.1333 45.8667 79.4 46.72 80.28 47.92C81.16 49.0933 81.6 50.5467 81.6 52.28C81.6 53.8267 81.1867 55.1867 80.36 56.36C79.56 57.5067 78.4 58.4 76.88 59.04C75.3867 59.68 73.6267 60 71.6 60H60.96C59.8667 60 59.0267 59.7067 58.44 59.12C57.8533 58.5333 57.56 57.6933 57.56 56.6V35.2C57.56 34.1067 57.8533 33.2667 58.44 32.68C59.0267 32.0933 59.8667 31.8 60.96 31.8H71.2C74.16 31.8 76.5067 32.4667 78.24 33.8C80 35.1067 80.88 36.88 80.88 39.12C80.88 40.56 80.4933 41.84 79.72 42.96C78.9467 44.0533 77.8667 44.8533 76.48 45.36ZM64.72 42.88H69.96C71.3467 42.88 72.36 42.6667 73 42.24C73.64 41.8133 73.96 41.1333 73.96 40.2C73.96 39.2133 73.64 38.4933 73 38.04C72.36 37.5867 71.3467 37.36 69.96 37.36H64.72V42.88ZM70.68 54.44C72.1467 54.44 73.1867 54.2133 73.8 53.76C74.44 53.28 74.76 52.5067 74.76 51.44C74.76 50.3733 74.44 49.6133 73.8 49.16C73.1867 48.68 72.1467 48.44 70.68 48.44H64.72V54.44H70.68ZM111.982 55.48C112.222 55.9867 112.342 56.48 112.342 56.96C112.342 57.84 111.982 58.5867 111.262 59.2C110.569 59.8133 109.769 60.12 108.862 60.12C108.249 60.12 107.689 59.96 107.182 59.64C106.675 59.32 106.275 58.84 105.982 58.2L104.182 54.16H91.2219L89.3819 58.2C89.0885 58.84 88.6752 59.32 88.1419 59.64C87.6352 59.96 87.0752 60.12 86.4619 60.12C85.5552 60.12 84.7285 59.8133 83.9819 59.2C83.2619 58.5867 82.9019 57.84 82.9019 56.96C82.9019 56.48 83.0219 55.9867 83.2619 55.48L93.8219 33.8C94.1685 33.08 94.6752 32.5333 95.3419 32.16C96.0352 31.76 96.7952 31.56 97.6219 31.56C98.4219 31.56 99.1685 31.76 99.8619 32.16C100.555 32.5333 101.075 33.08 101.422 33.8L111.982 55.48ZM93.7019 48.64H101.702L97.7019 39.72L93.7019 48.64ZM136.749 44.08C137.629 44.08 138.323 44.3333 138.829 44.84C139.363 45.32 139.629 45.9733 139.629 46.8V53.76C139.629 55.0933 139.523 56.12 139.309 56.84C139.123 57.5333 138.763 58.08 138.229 58.48C137.723 58.88 136.949 59.2267 135.909 59.52C134.869 59.7867 133.709 59.9867 132.429 60.12C131.176 60.28 130.003 60.36 128.909 60.36C125.843 60.36 123.176 59.7867 120.909 58.64C118.669 57.4667 116.949 55.8 115.749 53.64C114.549 51.4533 113.949 48.8667 113.949 45.88C113.949 42.9467 114.549 40.4 115.749 38.24C116.949 36.0533 118.656 34.3733 120.869 33.2C123.083 32.0267 125.669 31.44 128.629 31.44C130.496 31.44 132.163 31.6667 133.629 32.12C135.123 32.5467 136.509 33.2133 137.789 34.12C138.243 34.44 138.563 34.7867 138.749 35.16C138.963 35.5333 139.069 36.0133 139.069 36.6C139.069 37.4267 138.843 38.1333 138.389 38.72C137.936 39.28 137.389 39.56 136.749 39.56C136.323 39.56 135.949 39.5067 135.629 39.4C135.336 39.2667 134.949 39.0533 134.469 38.76C133.483 38.2267 132.549 37.84 131.669 37.6C130.816 37.36 129.883 37.24 128.869 37.24C126.336 37.24 124.443 37.9467 123.189 39.36C121.963 40.7733 121.349 42.9467 121.349 45.88C121.349 48.8933 121.989 51.1333 123.269 52.6C124.576 54.04 126.563 54.76 129.229 54.76C130.509 54.76 131.776 54.6267 133.029 54.36V49.12H130.149C129.269 49.12 128.589 48.9067 128.109 48.48C127.629 48.0267 127.389 47.4 127.389 46.6C127.389 45.8 127.629 45.1867 128.109 44.76C128.589 44.3067 129.269 44.08 130.149 44.08H136.749ZM156.755 60.36C152.675 60.36 149.568 59.32 147.435 57.24C145.328 55.16 144.275 52.12 144.275 48.12V35.2C144.275 34.1067 144.595 33.24 145.235 32.6C145.902 31.9333 146.782 31.6 147.875 31.6C148.968 31.6 149.835 31.9333 150.475 32.6C151.142 33.24 151.475 34.1067 151.475 35.2V48.4C151.475 50.4267 151.928 51.9867 152.835 53.08C153.742 54.1733 155.048 54.72 156.755 54.72C158.462 54.72 159.768 54.1733 160.675 53.08C161.582 51.9867 162.035 50.4267 162.035 48.4V35.2C162.035 34.1067 162.355 33.24 162.995 32.6C163.662 31.9333 164.542 31.6 165.635 31.6C166.728 31.6 167.608 31.9333 168.275 32.6C168.942 33.24 169.275 34.1067 169.275 35.2V48.12C169.275 52.0933 168.195 55.1333 166.035 57.24C163.902 59.32 160.808 60.36 156.755 60.36ZM177.64 60C176.546 60 175.706 59.7067 175.12 59.12C174.533 58.5333 174.24 57.6933 174.24 56.6V35.2C174.24 34.1067 174.533 33.2667 175.12 32.68C175.706 32.0933 176.546 31.8 177.64 31.8H185.72C188.84 31.8 191.52 32.3733 193.76 33.52C196.026 34.64 197.76 36.2533 198.96 38.36C200.16 40.4667 200.76 42.9733 200.76 45.88C200.76 48.8133 200.16 51.3467 198.96 53.48C197.786 55.5867 196.066 57.2 193.8 58.32C191.56 59.44 188.866 60 185.72 60H177.64ZM185.2 54.08C187.946 54.08 190 53.4133 191.36 52.08C192.746 50.72 193.44 48.6533 193.44 45.88C193.44 43.1067 192.746 41.0533 191.36 39.72C190 38.3867 187.946 37.72 185.2 37.72H181.6V54.08H185.2ZM224.097 45.36C225.751 45.8667 227.017 46.72 227.897 47.92C228.777 49.0933 229.217 50.5467 229.217 52.28C229.217 53.8267 228.804 55.1867 227.977 56.36C227.177 57.5067 226.017 58.4 224.497 59.04C223.004 59.68 221.244 60 219.217 60H208.577C207.484 60 206.644 59.7067 206.057 59.12C205.471 58.5333 205.177 57.6933 205.177 56.6V35.2C205.177 34.1067 205.471 33.2667 206.057 32.68C206.644 32.0933 207.484 31.8 208.577 31.8H218.817C221.777 31.8 224.124 32.4667 225.857 33.8C227.617 35.1067 228.497 36.88 228.497 39.12C228.497 40.56 228.111 41.84 227.337 42.96C226.564 44.0533 225.484 44.8533 224.097 45.36ZM212.337 42.88H217.577C218.964 42.88 219.977 42.6667 220.617 42.24C221.257 41.8133 221.577 41.1333 221.577 40.2C221.577 39.2133 221.257 38.4933 220.617 38.04C219.977 37.5867 218.964 37.36 217.577 37.36H212.337V42.88ZM218.297 54.44C219.764 54.44 220.804 54.2133 221.417 53.76C222.057 53.28 222.377 52.5067 222.377 51.44C222.377 50.3733 222.057 49.6133 221.417 49.16C220.804 48.68 219.764 48.44 218.297 48.44H212.337V54.44H218.297ZM245.31 60.36C241.23 60.36 238.123 59.32 235.99 57.24C233.883 55.16 232.83 52.12 232.83 48.12V35.2C232.83 34.1067 233.15 33.24 233.79 32.6C234.456 31.9333 235.336 31.6 236.43 31.6C237.523 31.6 238.39 31.9333 239.03 32.6C239.696 33.24 240.03 34.1067 240.03 35.2V48.4C240.03 50.4267 240.483 51.9867 241.39 53.08C242.296 54.1733 243.603 54.72 245.31 54.72C247.016 54.72 248.323 54.1733 249.23 53.08C250.136 51.9867 250.59 50.4267 250.59 48.4V35.2C250.59 34.1067 250.91 33.24 251.55 32.6C252.216 31.9333 253.096 31.6 254.19 31.6C255.283 31.6 256.163 31.9333 256.83 32.6C257.496 33.24 257.83 34.1067 257.83 35.2V48.12C257.83 52.0933 256.75 55.1333 254.59 57.24C252.456 59.32 249.363 60.36 245.31 60.36ZM266.194 60C265.101 60 264.261 59.7067 263.674 59.12C263.088 58.5333 262.794 57.6933 262.794 56.6V35.2C262.794 34.1067 263.088 33.2667 263.674 32.68C264.261 32.0933 265.101 31.8 266.194 31.8H274.274C277.394 31.8 280.074 32.3733 282.314 33.52C284.581 34.64 286.314 36.2533 287.514 38.36C288.714 40.4667 289.314 42.9733 289.314 45.88C289.314 48.8133 288.714 51.3467 287.514 53.48C286.341 55.5867 284.621 57.2 282.354 58.32C280.114 59.44 277.421 60 274.274 60H266.194ZM273.754 54.08C276.501 54.08 278.554 53.4133 279.914 52.08C281.301 50.72 281.994 48.6533 281.994 45.88C281.994 43.1067 281.301 41.0533 279.914 39.72C278.554 38.3867 276.501 37.72 273.754 37.72H270.154V54.08H273.754Z" fill="black"/>
<path d="M296.927 84.8506H288.956L289.908 80.5659H297.416L298.014 77.6484H290.506L291.41 73.5347H299.369L300.028 70.3853H288.346L284.598 88H296.28L296.927 84.8506ZM305.008 83.6787L306.632 88H310.343L307.633 81.5303L313.15 74.8774H309.244L305.96 79.1987H305.887L304.251 74.8774H300.541L303.25 81.3472L297.733 88H301.651L304.935 83.6787H305.008ZM319.278 85.2656C317.728 85.2656 316.715 84.106 316.715 82.4214C316.715 79.8213 318.229 77.5264 320.377 77.5264C321.915 77.5264 322.867 78.6494 322.867 80.4683C322.867 83.2026 321.292 85.2656 319.278 85.2656ZM314.457 92.2847L315.897 85.5342H315.97C316.483 87.1699 317.972 88.2075 319.913 88.2075C323.624 88.2075 326.407 84.6919 326.407 79.9434C326.407 76.7085 324.662 74.6699 321.83 74.6699C320.169 74.6699 318.644 75.4634 317.74 76.8306H317.667L318.094 74.8774H314.688L310.99 92.2847H314.457ZM326.871 88H330.362L331.876 80.8955C332.328 78.8691 333.451 77.8193 335.318 77.8193C336.026 77.8193 336.673 78.0024 337.125 78.21L337.809 75.0117C337.406 74.8164 336.844 74.6821 336.148 74.6821C334.623 74.6821 333.438 75.5 332.743 76.7085H332.669L333.036 74.8774H329.667L326.871 88ZM340.934 80.0288C341.349 78.4297 342.545 77.2578 344.168 77.2578C345.816 77.2578 346.646 78.3687 346.646 79.6626C346.646 79.7847 346.634 79.9434 346.622 80.0288H340.934ZM343.119 88.293C346.28 88.293 348.673 86.4375 349.344 83.8252H346.061C345.658 84.875 344.645 85.583 343.253 85.583C341.593 85.583 340.555 84.3867 340.555 82.6533C340.555 82.519 340.567 82.3848 340.58 82.2383H349.735C349.869 81.6157 349.918 80.8345 349.918 80.1997C349.918 76.7695 347.672 74.5845 344.291 74.5845C340.152 74.5845 337.32 77.9658 337.32 82.3848C337.32 85.9736 339.469 88.293 343.119 88.293ZM352.127 78.7837C352.127 80.5903 353.189 81.75 355.606 82.5435L356.766 82.9341C358.17 83.3857 358.573 83.6909 358.573 84.3135C358.573 85.1558 357.743 85.7539 356.498 85.7539C354.996 85.7539 354.044 84.9971 353.922 83.9229H350.577C350.675 86.5229 352.921 88.293 356.388 88.293C359.745 88.293 362.04 86.5229 362.04 83.9473C362.04 82.2017 361.075 81.2007 358.646 80.395L357.34 79.9556C355.912 79.4917 355.46 79.1499 355.46 78.4663C355.46 77.6729 356.241 77.1235 357.511 77.1235C358.768 77.1235 359.671 77.8315 359.757 78.8325H362.931C362.87 76.3301 360.685 74.5967 357.56 74.5967C354.288 74.5967 352.127 76.2935 352.127 78.7837ZM364.872 78.7837C364.872 80.5903 365.934 81.75 368.351 82.5435L369.51 82.9341C370.914 83.3857 371.317 83.6909 371.317 84.3135C371.317 85.1558 370.487 85.7539 369.242 85.7539C367.74 85.7539 366.788 84.9971 366.666 83.9229H363.321C363.419 86.5229 365.665 88.293 369.132 88.293C372.489 88.293 374.784 86.5229 374.784 83.9473C374.784 82.2017 373.819 81.2007 371.39 80.395L370.084 79.9556C368.656 79.4917 368.204 79.1499 368.204 78.4663C368.204 77.6729 368.985 77.1235 370.255 77.1235C371.512 77.1235 372.416 77.8315 372.501 78.8325H375.675C375.614 76.3301 373.429 74.5967 370.304 74.5967C367.032 74.5967 364.872 76.2935 364.872 78.7837Z" fill="#3CD87A"/>
</svg>
